<svg xmlns="http://www.w3.org/2000/svg" viewBox="0 0 760 340"><rect width="760" height="340" rx="28" fill="#f2f6f4"/><text x="42" y="42" font-family="Arial" font-size="22" font-weight="700" fill="#082b5b">Buffer</text><text x="42" y="66" font-family="Arial" font-size="14" fill="#60737d">Crea una zona a una distancia definida alrededor de puntos, líneas o polígonos.</text><circle cx="105" cy="145" r="8" fill="#3ca532"/><path d="M55 225Q140 75 290 180" fill="none" stroke="#456f8d" stroke-width="7"/><path d="M165 85 280 115 250 235 145 205Z" fill="#082b5b" opacity=".22" stroke="#082b5b" stroke-width="3"/><path d="M330 165H405" stroke="#456f8d" stroke-width="4"/><path d="M405 165l-14-9v18Z" fill="#456f8d"/><circle cx="500" cy="145" r="38" fill="#3ca532" opacity=".2" stroke="#3ca532" stroke-width="3"/><circle cx="500" cy="145" r="7" fill="#3ca532"/><path d="M430 235Q520 75 675 180" fill="none" stroke="#456f8d" stroke-width="35" opacity=".2"/><path d="M430 235Q520 75 675 180" fill="none" stroke="#456f8d" stroke-width="6"/><path d="M550 85 670 115 640 235 530 205Z" fill="#082b5b" opacity=".12" stroke="#082b5b" stroke-width="24" stroke-linejoin="round"/><text x="170" y="305" text-anchor="middle" font-family="Arial" font-size="13" fill="#60737d">Entrada: punto, línea y polígono</text><text x="570" y="305" text-anchor="middle" font-family="Arial" font-size="13" fill="#60737d">Resultado conceptual</text></svg>