<svg xmlns="http://www.w3.org/2000/svg" viewBox="0 0 760 360"><rect width="760" height="360" rx="28" fill="#f2f6f4"/><g fill="none" stroke="#d7e3dd" stroke-width="2"><path d="M70 290 C150 230 180 140 270 150 C360 160 380 255 470 235 C560 214 588 128 690 96"/><path d="M88 80 H690"/><path d="M88 280 H690"/><path d="M130 55 V305"/><path d="M380 55 V305"/><path d="M630 55 V305"/></g><g><circle cx="170" cy="220" r="9" fill="#3ca532"/><circle cx="190" cy="245" r="9" fill="#3ca532"/><circle cx="215" cy="215" r="9" fill="#3ca532"/><circle cx="238" cy="238" r="9" fill="#3ca532"/><circle cx="205" cy="185" r="9" fill="#3ca532"/><circle cx="510" cy="120" r="9" fill="#456f8d"/><circle cx="545" cy="145" r="9" fill="#456f8d"/><circle cx="575" cy="112" r="9" fill="#456f8d"/><circle cx="595" cy="160" r="9" fill="#456f8d"/><circle cx="535" cy="88" r="9" fill="#456f8d"/><circle cx="360" cy="230" r="9" fill="#082b5b"/><circle cx="395" cy="255" r="9" fill="#082b5b"/><circle cx="430" cy="220" r="9" fill="#082b5b"/><circle cx="410" cy="180" r="9" fill="#082b5b"/><circle cx="350" cy="190" r="9" fill="#082b5b"/></g><g stroke="#102c4e" stroke-width="4"><path d="M208 222 l-14 -14 M194 222 l14 -14"/><path d="M548 124 l-14 -14 M534 124 l14 -14"/><path d="M394 222 l-14 -14 M380 222 l14 -14"/></g><text x="55" y="42" font-family="Inter,Arial" font-size="22" font-weight="700" fill="#082b5b">K-means: centroides y agrupamiento iterativo</text><text x="55" y="326" font-family="Inter,Arial" font-size="15" fill="#60737d">Los píxeles se asignan al centroide más cercano; luego los centroides se recalculan hasta estabilizar los grupos.</text></svg>