<svg xmlns="http://www.w3.org/2000/svg" viewBox="0 0 760 360"><rect width="760" height="360" rx="28" fill="#f2f6f4"/><text x="45" y="42" font-family="Arial" font-size="22" font-weight="700" fill="#082b5b">Resolución espacial: tamaño del píxel sobre el terreno</text><g transform="translate(65 75)"><text x="125" y="-8" text-anchor="middle" font-family="Arial" font-size="15" fill="#082b5b">Píxeles grandes · 30 m</text><g stroke="#fff" stroke-width="3"><rect x="0" y="10" width="250" height="210" rx="8" fill="#8db78b"/><path d="M62.5 10V220M125 10V220M187.5 10V220M0 62.5H250M0 115H250M0 167.5H250"/></g><path d="M35 180 Q95 85 210 55" fill="none" stroke="#456f8d" stroke-width="25" opacity=".8"/><text x="465" y="-8" text-anchor="middle" font-family="Arial" font-size="15" fill="#082b5b">Píxeles pequeños · 10 m</text><rect x="340" y="10" width="250" height="210" rx="8" fill="#8db78b"/><path d="M375 190 Q435 92 555 50" fill="none" stroke="#456f8d" stroke-width="18"/><g stroke="#fff" stroke-width="1" opacity=".75"><path d="M350 10V220"/><path d="M360 10V220"/><path d="M370 10V220"/><path d="M380 10V220"/><path d="M390 10V220"/><path d="M400 10V220"/><path d="M410 10V220"/><path d="M420 10V220"/><path d="M430 10V220"/><path d="M440 10V220"/><path d="M450 10V220"/><path d="M460 10V220"/><path d="M470 10V220"/><path d="M480 10V220"/><path d="M490 10V220"/><path d="M500 10V220"/><path d="M510 10V220"/><path d="M520 10V220"/><path d="M530 10V220"/><path d="M540 10V220"/><path d="M550 10V220"/><path d="M560 10V220"/><path d="M570 10V220"/><path d="M580 10V220"/><path d="M590 10V220"/><path d="M340 20H590"/><path d="M340 30H590"/><path d="M340 40H590"/><path d="M340 50H590"/><path d="M340 60H590"/><path d="M340 70H590"/><path d="M340 80H590"/><path d="M340 90H590"/><path d="M340 100H590"/><path d="M340 110H590"/><path d="M340 120H590"/><path d="M340 130H590"/><path d="M340 140H590"/><path d="M340 150H590"/><path d="M340 160H590"/><path d="M340 170H590"/><path d="M340 180H590"/><path d="M340 190H590"/><path d="M340 200H590"/><path d="M340 210H590"/><path d="M340 220H590"/></g></g><text x="45" y="330" font-family="Arial" font-size="15" fill="#60737d">Un píxel menor permite distinguir objetos más pequeños y bordes con mayor detalle.</text></svg>