<svg xmlns="http://www.w3.org/2000/svg" viewBox="0 0 760 360"><rect width="760" height="360" rx="28" fill="#f2f6f4"/><text x="45" y="42" font-family="Arial" font-size="22" font-weight="700" fill="#082b5b">Resolución espectral: cuántas regiones del espectro se distinguen</text><g transform="translate(60 82)" font-family="Arial"><text x="0" y="0" font-size="14" fill="#082b5b">Sensor con bandas anchas</text><rect x="0" y="20" width="145" height="62" rx="10" fill="#7fa69d"/><rect x="150" y="20" width="145" height="62" rx="10" fill="#5e8c7c"/><rect x="300" y="20" width="145" height="62" rx="10" fill="#456f8d"/><rect x="450" y="20" width="145" height="62" rx="10" fill="#294f70"/><text x="0" y="125" font-size="14" fill="#082b5b">Sensor con bandas estrechas</text><rect x="0" y="145" width="34" height="62" rx="5" fill="#9ab9a6"/><rect x="38" y="145" width="34" height="62" rx="5" fill="#8eb29b"/><rect x="76" y="145" width="34" height="62" rx="5" fill="#80aa91"/><rect x="114" y="145" width="34" height="62" rx="5" fill="#72a287"/><rect x="152" y="145" width="34" height="62" rx="5" fill="#649a80"/><rect x="190" y="145" width="34" height="62" rx="5" fill="#589179"/><rect x="228" y="145" width="34" height="62" rx="5" fill="#4d8875"/><rect x="266" y="145" width="34" height="62" rx="5" fill="#457f74"/><rect x="304" y="145" width="34" height="62" rx="5" fill="#3e7673"/><rect x="342" y="145" width="34" height="62" rx="5" fill="#386d72"/><rect x="380" y="145" width="34" height="62" rx="5" fill="#326471"/><rect x="418" y="145" width="34" height="62" rx="5" fill="#2d5b70"/><rect x="456" y="145" width="34" height="62" rx="5" fill="#28536d"/><rect x="494" y="145" width="34" height="62" rx="5" fill="#244b68"/><rect x="532" y="145" width="34" height="62" rx="5" fill="#214362"/><rect x="570" y="145" width="34" height="62" rx="5" fill="#1f3b5b"/><text x="0" y="240" font-size="13" fill="#60737d">Más bandas y bandas más estrechas permiten separar firmas espectrales similares.</text></g></svg>