<svg xmlns="http://www.w3.org/2000/svg" viewBox="0 0 760 360"><rect width="760" height="360" rx="28" fill="#f2f6f4"/><text x="55" y="42" font-family="Inter,Arial" font-size="22" font-weight="700" fill="#082b5b">SVM: hiperplano con margen máximo</text><g transform="translate(80 70)"><line x1="85" y1="240" x2="560" y2="35" stroke="#082b5b" stroke-width="4"/><line x1="55" y1="202" x2="530" y2="-3" stroke="#456f8d" stroke-width="2" stroke-dasharray="8 8"/><line x1="120" y1="282" x2="595" y2="77" stroke="#456f8d" stroke-width="2" stroke-dasharray="8 8"/><g fill="#3ca532"><circle cx="130" cy="75" r="9"/><circle cx="185" cy="95" r="9"/><circle cx="225" cy="55" r="9"/><circle cx="260" cy="105" r="9"/><circle cx="315" cy="72" r="9"/></g><g fill="#456f8d"><rect x="350" y="180" width="18" height="18" rx="4"/><rect x="410" y="200" width="18" height="18" rx="4"/><rect x="465" y="165" width="18" height="18" rx="4"/><rect x="520" y="210" width="18" height="18" rx="4"/><rect x="560" y="155" width="18" height="18" rx="4"/></g><circle cx="315" cy="72" r="16" fill="none" stroke="#082b5b" stroke-width="3"/><rect x="350" y="180" width="18" height="18" rx="4" fill="none" stroke="#082b5b" stroke-width="3"/><text x="330" y="305" text-anchor="middle" font-family="Inter,Arial" font-size="14" fill="#60737d">vectores de soporte definen la frontera</text></g><text x="55" y="326" font-family="Inter,Arial" font-size="15" fill="#60737d">Con kernels, la frontera puede modelar separaciones no lineales.</text></svg>